<svg width="303" height="96" viewBox="0 0 303 96" fill="none" xmlns="http://www.w3.org/2000/svg">
<ellipse cx="117.646" cy="47.8517" rx="30.0554" ry="36.9518" transform="rotate(-46.4023 117.646 47.8517)" fill="#0286FF"/>
<path d="M89.7305 44.1445C89.4766 44.1367 89.2461 44.0938 89.0391 44.0156C88.832 43.9375 88.6465 43.832 88.4824 43.6992C88.3184 43.5664 88.1758 43.4121 88.0547 43.2363C87.9375 43.0605 87.8379 42.8711 87.7559 42.668C87.6777 42.4688 87.6191 42.2617 87.5801 42.0469C87.541 41.8359 87.5215 41.627 87.5215 41.4199V40.4297C87.5215 39.8672 87.3867 39.459 87.1172 39.2051C86.8516 38.9512 86.4434 38.8223 85.8926 38.8184V37.9688C86.4434 37.9688 86.8516 37.8438 87.1172 37.5938C87.3867 37.3398 87.5215 36.9297 87.5215 36.3633V35.3672C87.5215 35.1602 87.5391 34.9512 87.5742 34.7402C87.6094 34.5254 87.6641 34.3184 87.7383 34.1191C87.8125 33.916 87.9062 33.7266 88.0195 33.5508C88.1367 33.375 88.2773 33.2207 88.4414 33.0879C88.6055 32.9551 88.793 32.8496 89.0039 32.7715C89.2188 32.6934 89.4609 32.6504 89.7305 32.6426L89.8535 33.3164C89.5723 33.3242 89.3477 33.3906 89.1797 33.5156C89.0156 33.6406 88.8906 33.8008 88.8047 33.9961C88.7227 34.1875 88.6699 34.4043 88.6465 34.6465C88.623 34.8887 88.6113 35.1289 88.6113 35.3672V36.3633C88.6074 36.832 88.498 37.2441 88.2832 37.5996C88.0684 37.9512 87.7344 38.2188 87.2812 38.4023C87.7344 38.582 88.0684 38.8496 88.2832 39.2051C88.498 39.5566 88.6074 39.9648 88.6113 40.4297V41.4199C88.6113 41.6621 88.6309 41.9023 88.6699 42.1406C88.709 42.3828 88.7754 42.5996 88.8691 42.791C88.9668 42.9863 89.0938 43.1465 89.25 43.2715C89.4102 43.3965 89.6113 43.4629 89.8535 43.4707L89.7305 44.1445ZM97.752 39.4336C97.7012 39.8281 97.5996 40.1914 97.4473 40.5234C97.2949 40.8516 97.0957 41.1348 96.8496 41.373C96.6074 41.6074 96.3184 41.791 95.9824 41.9238C95.6504 42.0527 95.2793 42.1172 94.8691 42.1172C94.5176 42.1172 94.1973 42.0684 93.9082 41.9707C93.623 41.8691 93.3672 41.7305 93.1406 41.5547C92.918 41.3789 92.7246 41.1719 92.5605 40.9336C92.4004 40.6953 92.2656 40.4355 92.1562 40.1543C92.0508 39.873 91.9707 39.5781 91.916 39.2695C91.8652 38.9609 91.8379 38.6484 91.834 38.332V37.1426C91.8379 36.8262 91.8652 36.5137 91.916 36.2051C91.9707 35.8965 92.0508 35.6016 92.1562 35.3203C92.2656 35.0391 92.4004 34.7793 92.5605 34.541C92.7246 34.2988 92.918 34.0898 93.1406 33.9141C93.3672 33.7383 93.623 33.6016 93.9082 33.5039C94.1934 33.4023 94.5137 33.3516 94.8691 33.3516C95.2949 33.3516 95.6758 33.418 96.0117 33.5508C96.3477 33.6797 96.6367 33.8652 96.8789 34.1074C97.1211 34.3457 97.3145 34.6328 97.459 34.9688C97.6074 35.3047 97.7051 35.6758 97.752 36.082H96.668C96.6328 35.8242 96.5723 35.584 96.4863 35.3613C96.4004 35.1387 96.2852 34.9434 96.1406 34.7754C95.9961 34.6074 95.8184 34.4766 95.6074 34.3828C95.4004 34.2852 95.1543 34.2363 94.8691 34.2363C94.6113 34.2363 94.3828 34.2793 94.1836 34.3652C93.9883 34.4473 93.8184 34.5605 93.6738 34.7051C93.5332 34.8496 93.4141 35.0176 93.3164 35.209C93.2227 35.4004 93.1465 35.6035 93.0879 35.8184C93.0293 36.0332 92.9863 36.2539 92.959 36.4805C92.9355 36.7031 92.9238 36.9199 92.9238 37.1309V38.332C92.9238 38.543 92.9355 38.7617 92.959 38.9883C92.9863 39.2109 93.0293 39.4316 93.0879 39.6504C93.1465 39.8652 93.2227 40.0684 93.3164 40.2598C93.4102 40.4512 93.5293 40.6211 93.6738 40.7695C93.8184 40.9141 93.9883 41.0293 94.1836 41.1152C94.3789 41.1973 94.6074 41.2383 94.8691 41.2383C95.1543 41.2383 95.4004 41.1934 95.6074 41.1035C95.8184 41.0137 95.9961 40.8887 96.1406 40.7285C96.2852 40.5645 96.4004 40.373 96.4863 40.1543C96.5723 39.9316 96.6328 39.6914 96.668 39.4336H97.752ZM103.436 33.4688H104.543V39.4043C104.535 39.7988 104.459 40.1621 104.314 40.4941C104.174 40.8262 103.98 41.1133 103.734 41.3555C103.488 41.5938 103.197 41.7812 102.861 41.918C102.529 42.0508 102.166 42.1172 101.771 42.1172C101.373 42.1172 101.01 42.0566 100.682 41.9355C100.357 41.8145 100.074 41.6426 99.832 41.4199C99.5938 41.1934 99.4023 40.9219 99.2578 40.6055C99.1133 40.2852 99.0234 39.9277 98.9883 39.5332H100.09C100.102 39.7715 100.148 39.9922 100.23 40.1953C100.316 40.3984 100.432 40.5762 100.576 40.7285C100.721 40.877 100.893 40.9922 101.092 41.0742C101.295 41.1562 101.521 41.1973 101.771 41.1973C102.029 41.1973 102.26 41.1504 102.463 41.0566C102.666 40.959 102.838 40.8281 102.979 40.6641C103.123 40.5 103.232 40.3105 103.307 40.0957C103.385 39.877 103.428 39.6465 103.436 39.4043V33.4688ZM107.514 43.4707C107.752 43.4629 107.951 43.3965 108.111 43.2715C108.271 43.1465 108.398 42.9863 108.492 42.791C108.59 42.5996 108.658 42.3828 108.697 42.1406C108.74 41.9023 108.762 41.6621 108.762 41.4199V40.4297C108.762 39.9648 108.869 39.5566 109.084 39.2051C109.299 38.8496 109.633 38.582 110.086 38.4023C109.633 38.2188 109.299 37.9512 109.084 37.5996C108.869 37.2441 108.762 36.832 108.762 36.3633V35.3672C108.762 35.1289 108.748 34.8887 108.721 34.6465C108.697 34.4043 108.643 34.1875 108.557 33.9961C108.475 33.8008 108.352 33.6406 108.188 33.5156C108.023 33.3906 107.801 33.3242 107.52 33.3164L107.637 32.6426C107.906 32.6504 108.146 32.6934 108.357 32.7715C108.572 32.8496 108.762 32.9551 108.926 33.0879C109.09 33.2207 109.229 33.375 109.342 33.5508C109.459 33.7266 109.555 33.916 109.629 34.1191C109.703 34.3184 109.758 34.5254 109.793 34.7402C109.828 34.9512 109.846 35.1602 109.846 35.3672V36.3633C109.846 36.9297 109.98 37.3398 110.25 37.5938C110.52 37.8438 110.928 37.9688 111.475 37.9688V38.8184C110.928 38.8223 110.52 38.9512 110.25 39.2051C109.98 39.459 109.846 39.8672 109.846 40.4297V41.4199C109.846 41.7324 109.803 42.0469 109.717 42.3633C109.631 42.6836 109.496 42.9746 109.312 43.2363C109.133 43.498 108.904 43.7129 108.627 43.8809C108.35 44.0488 108.02 44.1367 107.637 44.1445L107.514 43.4707Z" fill="white"/>
<path d="M16.4531 57.5312C16.4531 56.7461 16.2715 56.084 15.9082 55.5449C15.5566 55.0059 15.0996 54.5547 14.5371 54.1914C13.9746 53.8164 13.3535 53.5059 12.6738 53.2598C12.0059 53.0137 11.3613 52.791 10.7402 52.5918C9.83789 52.2988 8.91797 51.9473 7.98047 51.5371C7.05469 51.127 6.20508 50.623 5.43164 50.0254C4.66992 49.4277 4.04297 48.7246 3.55078 47.916C3.07031 47.0957 2.83008 46.1348 2.83008 45.0332C2.83008 43.9316 3.07031 42.9473 3.55078 42.0801C4.04297 41.2129 4.68164 40.4805 5.4668 39.8828C6.25195 39.2852 7.14258 38.834 8.13867 38.5293C9.13477 38.2129 10.1367 38.0547 11.1445 38.0547C12.2578 38.0547 13.3301 38.2422 14.3613 38.6172C15.3926 38.9805 16.3066 39.4961 17.1035 40.1641C17.9004 40.832 18.5391 41.6406 19.0195 42.5898C19.5 43.5391 19.752 44.5996 19.7754 45.7715H16.4355C16.3418 45.0332 16.1602 44.3652 15.8906 43.7676C15.6211 43.1582 15.2637 42.6367 14.8184 42.2031C14.373 41.7695 13.8398 41.4355 13.2188 41.2012C12.6094 40.9551 11.918 40.832 11.1445 40.832C10.5234 40.832 9.91406 40.9199 9.31641 41.0957C8.73047 41.2715 8.20312 41.5352 7.73438 41.8867C7.27734 42.2383 6.9082 42.6719 6.62695 43.1875C6.35742 43.7031 6.22266 44.3008 6.22266 44.9805C6.23438 45.7188 6.42188 46.3457 6.78516 46.8613C7.14844 47.3652 7.60547 47.793 8.15625 48.1445C8.71875 48.4961 9.32227 48.7891 9.9668 49.0234C10.623 49.2578 11.2383 49.4629 11.8125 49.6387C12.4453 49.8379 13.084 50.0664 13.7285 50.3242C14.373 50.5703 14.9941 50.8574 15.5918 51.1855C16.1895 51.5137 16.7461 51.8828 17.2617 52.293C17.7773 52.7031 18.2285 53.1719 18.6152 53.6992C19.002 54.2148 19.3008 54.7891 19.5117 55.4219C19.7344 56.043 19.8457 56.7344 19.8457 57.4961C19.8457 58.6445 19.5879 59.6465 19.0723 60.502C18.5684 61.3574 17.9121 62.0723 17.1035 62.6465C16.2949 63.209 15.3809 63.6367 14.3613 63.9297C13.3418 64.2109 12.3223 64.3516 11.3027 64.3516C10.166 64.3516 9.05273 64.1758 7.96289 63.8242C6.87305 63.4727 5.89453 62.9688 5.02734 62.3125C4.17188 61.6445 3.47461 60.8359 2.93555 59.8867C2.39648 58.9258 2.10938 57.8359 2.07422 56.6172H5.39648C5.50195 57.4141 5.71875 58.123 6.04688 58.7441C6.375 59.3535 6.79688 59.875 7.3125 60.3086C7.82812 60.7305 8.41992 61.0527 9.08789 61.2754C9.76758 61.4863 10.5059 61.5918 11.3027 61.5918C11.9355 61.5918 12.5566 61.5156 13.166 61.3633C13.7871 61.1992 14.3379 60.9531 14.8184 60.625C15.2988 60.2852 15.6914 59.8633 15.9961 59.3594C16.3008 58.8438 16.4531 58.2344 16.4531 57.5312ZM33.082 64.3516C31.7461 64.3516 30.5156 64.123 29.3906 63.666C28.2773 63.209 27.3223 62.5703 26.5254 61.75C25.7285 60.9297 25.1074 59.957 24.6621 58.832C24.2168 57.707 23.9941 56.4824 23.9941 55.1582V54.4199C23.9941 52.8848 24.2402 51.5137 24.7324 50.3066C25.2246 49.0879 25.875 48.0625 26.6836 47.2305C27.5039 46.3867 28.4297 45.7422 29.4609 45.2969C30.5039 44.8516 31.5703 44.6289 32.6602 44.6289C34.0312 44.6289 35.2266 44.8691 36.2461 45.3496C37.2773 45.8184 38.1328 46.4746 38.8125 47.3184C39.4922 48.1504 39.9961 49.1348 40.3242 50.2715C40.6641 51.4082 40.834 52.6387 40.834 53.9629V55.4219H27.2461C27.2812 56.2891 27.4453 57.1035 27.7383 57.8652C28.043 58.627 28.4531 59.2949 28.9688 59.8691C29.4961 60.4316 30.123 60.877 30.8496 61.2051C31.5762 61.5332 32.3789 61.6973 33.2578 61.6973C34.418 61.6973 35.4492 61.4629 36.3516 60.9941C37.2539 60.5254 38.0039 59.9043 38.6016 59.1309L40.5879 60.6777C40.2715 61.1582 39.873 61.6211 39.3926 62.0664C38.9238 62.5 38.3789 62.8867 37.7578 63.2266C37.1367 63.5664 36.4336 63.8359 35.6484 64.0352C34.8633 64.2461 34.0078 64.3516 33.082 64.3516ZM32.6602 47.3008C32.0039 47.3008 31.3828 47.4238 30.7969 47.6699C30.2109 47.9043 29.6836 48.2559 29.2148 48.7246C28.7461 49.1816 28.3477 49.75 28.0195 50.4297C27.7031 51.0977 27.4805 51.8711 27.3516 52.75H37.582V52.5039C37.5469 51.8711 37.4238 51.2441 37.2129 50.623C37.0137 50.002 36.7148 49.4453 36.3164 48.9531C35.918 48.4609 35.4141 48.0625 34.8047 47.7578C34.207 47.4531 33.4922 47.3008 32.6602 47.3008ZM45.7031 54.332C45.7031 52.9141 45.873 51.6133 46.2129 50.4297C46.5645 49.2344 47.0684 48.209 47.7246 47.3535C48.3809 46.498 49.1777 45.8301 50.1152 45.3496C51.0527 44.8691 52.1133 44.6289 53.2969 44.6289C54.4688 44.6289 55.4941 44.8398 56.373 45.2617C57.2637 45.6719 58.0195 46.2695 58.6406 47.0547L58.7988 44.9805H61.752V63.5957C61.752 64.8496 61.5527 65.9629 61.1543 66.9355C60.7676 67.9082 60.2168 68.7344 59.502 69.4141C58.7988 70.0938 57.9551 70.6094 56.9707 70.9609C55.9863 71.3125 54.8965 71.4883 53.7012 71.4883C53.209 71.4883 52.6465 71.4297 52.0137 71.3125C51.3809 71.207 50.7363 71.0254 50.0801 70.7676C49.4355 70.5215 48.8086 70.1875 48.1992 69.7656C47.6016 69.3438 47.0859 68.8223 46.6523 68.2012L48.3398 66.25C48.7383 66.7305 49.1484 67.1348 49.5703 67.4629C49.9922 67.8027 50.4199 68.0723 50.8535 68.2715C51.2871 68.4707 51.7207 68.6113 52.1543 68.6934C52.5879 68.7871 53.0215 68.834 53.4551 68.834C54.2285 68.834 54.9258 68.7227 55.5469 68.5C56.168 68.2773 56.6953 67.9492 57.1289 67.5156C57.5742 67.0938 57.9141 66.5664 58.1484 65.9336C58.3828 65.3008 58.5 64.5742 58.5 63.7539V62.1191C57.8672 62.8457 57.1172 63.4023 56.25 63.7891C55.3945 64.1641 54.3984 64.3516 53.2617 64.3516C52.1016 64.3516 51.0527 64.1055 50.1152 63.6133C49.1777 63.1211 48.3809 62.4414 47.7246 61.5742C47.0801 60.707 46.582 59.6875 46.2305 58.5156C45.8789 57.332 45.7031 56.0605 45.7031 54.7012V54.332ZM48.9551 54.7012C48.9551 55.627 49.0488 56.5059 49.2363 57.3379C49.4355 58.1699 49.7402 58.9023 50.1504 59.5352C50.5723 60.168 51.1055 60.6719 51.75 61.0469C52.3945 61.4102 53.168 61.5918 54.0703 61.5918C54.6328 61.5918 55.1367 61.5273 55.582 61.3984C56.0391 61.2578 56.4434 61.0645 56.7949 60.8184C57.1582 60.5723 57.4805 60.2793 57.7617 59.9395C58.043 59.5996 58.2891 59.2246 58.5 58.8145V50.0957C58.2891 49.6973 58.043 49.334 57.7617 49.0059C57.4805 48.6777 57.1582 48.3965 56.7949 48.1621C56.4316 47.916 56.0273 47.7285 55.582 47.5996C55.1367 47.459 54.6445 47.3887 54.1055 47.3887C53.1914 47.3887 52.4062 47.5762 51.75 47.9512C51.1055 48.3262 50.5723 48.8359 50.1504 49.4805C49.7402 50.1133 49.4355 50.8516 49.2363 51.6953C49.0488 52.5273 48.9551 53.4062 48.9551 54.332V54.7012ZM76.3242 64.3516C74.9883 64.3516 73.7578 64.123 72.6328 63.666C71.5195 63.209 70.5645 62.5703 69.7676 61.75C68.9707 60.9297 68.3496 59.957 67.9043 58.832C67.459 57.707 67.2363 56.4824 67.2363 55.1582V54.4199C67.2363 52.8848 67.4824 51.5137 67.9746 50.3066C68.4668 49.0879 69.1172 48.0625 69.9258 47.2305C70.7461 46.3867 71.6719 45.7422 72.7031 45.2969C73.7461 44.8516 74.8125 44.6289 75.9023 44.6289C77.2734 44.6289 78.4688 44.8691 79.4883 45.3496C80.5195 45.8184 81.375 46.4746 82.0547 47.3184C82.7344 48.1504 83.2383 49.1348 83.5664 50.2715C83.9062 51.4082 84.0762 52.6387 84.0762 53.9629V55.4219H70.4883C70.5234 56.2891 70.6875 57.1035 70.9805 57.8652C71.2852 58.627 71.6953 59.2949 72.2109 59.8691C72.7383 60.4316 73.3652 60.877 74.0918 61.2051C74.8184 61.5332 75.6211 61.6973 76.5 61.6973C77.6602 61.6973 78.6914 61.4629 79.5938 60.9941C80.4961 60.5254 81.2461 59.9043 81.8438 59.1309L83.8301 60.6777C83.5137 61.1582 83.1152 61.6211 82.6348 62.0664C82.166 62.5 81.6211 62.8867 81 63.2266C80.3789 63.5664 79.6758 63.8359 78.8906 64.0352C78.1055 64.2461 77.25 64.3516 76.3242 64.3516ZM75.9023 47.3008C75.2461 47.3008 74.625 47.4238 74.0391 47.6699C73.4531 47.9043 72.9258 48.2559 72.457 48.7246C71.9883 49.1816 71.5898 49.75 71.2617 50.4297C70.9453 51.0977 70.7227 51.8711 70.5938 52.75H80.8242V52.5039C80.7891 51.8711 80.666 51.2441 80.4551 50.623C80.2559 50.002 79.957 49.4453 79.5586 48.9531C79.1602 48.4609 78.6562 48.0625 78.0469 47.7578C77.4492 47.4531 76.7344 47.3008 75.9023 47.3008ZM96.9961 59.3242L97.2949 60.502L97.6113 59.3242L102.938 44.9805H106.26L98.5078 64H96.0293L88.207 44.9805H91.5469L96.9961 59.3242ZM146.18 57.5312C146.18 56.7461 145.998 56.084 145.635 55.5449C145.283 55.0059 144.826 54.5547 144.264 54.1914C143.701 53.8164 143.08 53.5059 142.4 53.2598C141.732 53.0137 141.088 52.791 140.467 52.5918C139.564 52.2988 138.645 51.9473 137.707 51.5371C136.781 51.127 135.932 50.623 135.158 50.0254C134.396 49.4277 133.77 48.7246 133.277 47.916C132.797 47.0957 132.557 46.1348 132.557 45.0332C132.557 43.9316 132.797 42.9473 133.277 42.0801C133.77 41.2129 134.408 40.4805 135.193 39.8828C135.979 39.2852 136.869 38.834 137.865 38.5293C138.861 38.2129 139.863 38.0547 140.871 38.0547C141.984 38.0547 143.057 38.2422 144.088 38.6172C145.119 38.9805 146.033 39.4961 146.83 40.1641C147.627 40.832 148.266 41.6406 148.746 42.5898C149.227 43.5391 149.479 44.5996 149.502 45.7715H146.162C146.068 45.0332 145.887 44.3652 145.617 43.7676C145.348 43.1582 144.99 42.6367 144.545 42.2031C144.1 41.7695 143.566 41.4355 142.945 41.2012C142.336 40.9551 141.645 40.832 140.871 40.832C140.25 40.832 139.641 40.9199 139.043 41.0957C138.457 41.2715 137.93 41.5352 137.461 41.8867C137.004 42.2383 136.635 42.6719 136.354 43.1875C136.084 43.7031 135.949 44.3008 135.949 44.9805C135.961 45.7188 136.148 46.3457 136.512 46.8613C136.875 47.3652 137.332 47.793 137.883 48.1445C138.445 48.4961 139.049 48.7891 139.693 49.0234C140.35 49.2578 140.965 49.4629 141.539 49.6387C142.172 49.8379 142.811 50.0664 143.455 50.3242C144.1 50.5703 144.721 50.8574 145.318 51.1855C145.916 51.5137 146.473 51.8828 146.988 52.293C147.504 52.7031 147.955 53.1719 148.342 53.6992C148.729 54.2148 149.027 54.7891 149.238 55.4219C149.461 56.043 149.572 56.7344 149.572 57.4961C149.572 58.6445 149.314 59.6465 148.799 60.502C148.295 61.3574 147.639 62.0723 146.83 62.6465C146.021 63.209 145.107 63.6367 144.088 63.9297C143.068 64.2109 142.049 64.3516 141.029 64.3516C139.893 64.3516 138.779 64.1758 137.689 63.8242C136.6 63.4727 135.621 62.9688 134.754 62.3125C133.898 61.6445 133.201 60.8359 132.662 59.8867C132.123 58.9258 131.836 57.8359 131.801 56.6172H135.123C135.229 57.4141 135.445 58.123 135.773 58.7441C136.102 59.3535 136.523 59.875 137.039 60.3086C137.555 60.7305 138.146 61.0527 138.814 61.2754C139.494 61.4863 140.232 61.5918 141.029 61.5918C141.662 61.5918 142.283 61.5156 142.893 61.3633C143.514 61.1992 144.064 60.9531 144.545 60.625C145.025 60.2852 145.418 59.8633 145.723 59.3594C146.027 58.8438 146.18 58.2344 146.18 57.5312ZM157.658 47.8105C158.338 46.8145 159.176 46.041 160.172 45.4902C161.168 44.9277 162.287 44.6406 163.529 44.6289C164.525 44.6289 165.428 44.7754 166.236 45.0684C167.057 45.3496 167.754 45.7949 168.328 46.4043C168.902 47.0137 169.342 47.7871 169.646 48.7246C169.963 49.6504 170.121 50.752 170.121 52.0293V64H166.869V51.9941C166.869 50.4355 166.494 49.2754 165.744 48.5137C165.006 47.752 163.945 47.377 162.562 47.3887C161.52 47.3887 160.57 47.6465 159.715 48.1621C158.871 48.666 158.186 49.3398 157.658 50.1836V64H154.406V37H157.658V47.8105ZM177.521 44.9805L177.609 46.7734C177.996 46.1055 178.5 45.584 179.121 45.209C179.754 44.834 180.516 44.6406 181.406 44.6289C183.152 44.6289 184.318 45.3086 184.904 46.668C185.279 46.0586 185.771 45.5723 186.381 45.209C187.002 44.834 187.752 44.6406 188.631 44.6289C190.025 44.6289 191.098 45.0566 191.848 45.9121C192.598 46.7676 192.973 48.0625 192.973 49.7969V64H189.879V49.7617C189.879 48.168 189.146 47.377 187.682 47.3887C187.295 47.3887 186.961 47.4414 186.68 47.5469C186.398 47.6523 186.164 47.7988 185.977 47.9863C185.789 48.1621 185.643 48.373 185.537 48.6191C185.432 48.8535 185.361 49.0996 185.326 49.3574V64H182.232V49.7441C182.232 48.9824 182.062 48.3965 181.723 47.9863C181.383 47.5762 180.844 47.377 180.105 47.3887C179.426 47.3887 178.898 47.5234 178.523 47.793C178.148 48.0625 177.873 48.4199 177.697 48.8652V64H174.604V44.9805H177.521ZM209.988 61.3809C209.355 62.3184 208.564 63.0508 207.615 63.5781C206.666 64.0938 205.57 64.3516 204.328 64.3516C203.332 64.3516 202.43 64.1992 201.621 63.8945C200.812 63.5781 200.121 63.0918 199.547 62.4355C198.973 61.7793 198.527 60.9473 198.211 59.9395C197.906 58.9199 197.754 57.7012 197.754 56.2832V44.9805H201.006V56.3184C201.006 57.3496 201.088 58.2051 201.252 58.8848C201.416 59.5645 201.662 60.1094 201.99 60.5195C202.318 60.918 202.717 61.1992 203.186 61.3633C203.666 61.5273 204.217 61.6094 204.838 61.6094C206.162 61.6094 207.229 61.3398 208.037 60.8008C208.857 60.2617 209.467 59.5352 209.865 58.6211V44.9805H213.135V64H210.182L209.988 61.3809ZM227.672 64.3516C226.336 64.3516 225.105 64.123 223.98 63.666C222.867 63.209 221.912 62.5703 221.115 61.75C220.318 60.9297 219.697 59.957 219.252 58.832C218.807 57.707 218.584 56.4824 218.584 55.1582V54.4199C218.584 52.8848 218.83 51.5137 219.322 50.3066C219.814 49.0879 220.465 48.0625 221.273 47.2305C222.094 46.3867 223.02 45.7422 224.051 45.2969C225.094 44.8516 226.16 44.6289 227.25 44.6289C228.621 44.6289 229.816 44.8691 230.836 45.3496C231.867 45.8184 232.723 46.4746 233.402 47.3184C234.082 48.1504 234.586 49.1348 234.914 50.2715C235.254 51.4082 235.424 52.6387 235.424 53.9629V55.4219H221.836C221.871 56.2891 222.035 57.1035 222.328 57.8652C222.633 58.627 223.043 59.2949 223.559 59.8691C224.086 60.4316 224.713 60.877 225.439 61.2051C226.166 61.5332 226.969 61.6973 227.848 61.6973C229.008 61.6973 230.039 61.4629 230.941 60.9941C231.844 60.5254 232.594 59.9043 233.191 59.1309L235.178 60.6777C234.861 61.1582 234.463 61.6211 233.982 62.0664C233.514 62.5 232.969 62.8867 232.348 63.2266C231.727 63.5664 231.023 63.8359 230.238 64.0352C229.453 64.2461 228.598 64.3516 227.672 64.3516ZM227.25 47.3008C226.594 47.3008 225.973 47.4238 225.387 47.6699C224.801 47.9043 224.273 48.2559 223.805 48.7246C223.336 49.1816 222.938 49.75 222.609 50.4297C222.293 51.0977 222.07 51.8711 221.941 52.75H232.172V52.5039C232.137 51.8711 232.014 51.2441 231.803 50.623C231.604 50.002 231.305 49.4453 230.906 48.9531C230.508 48.4609 230.004 48.0625 229.395 47.7578C228.797 47.4531 228.082 47.3008 227.25 47.3008ZM241.4 37H251.121V61.1875H257.326V64H241.4V61.1875H247.869V39.8301H241.4V37ZM263.021 44.9805H272.742V61.1875H278.947V64H263.021V61.1875H269.49V47.8105H263.021V44.9805ZM269.068 39.9883C269.068 39.4492 269.227 38.998 269.543 38.6348C269.871 38.2598 270.363 38.0723 271.02 38.0723C271.664 38.0723 272.15 38.2598 272.479 38.6348C272.807 38.998 272.971 39.4492 272.971 39.9883C272.971 40.5156 272.807 40.9551 272.479 41.3066C272.15 41.6582 271.664 41.834 271.02 41.834C270.363 41.834 269.871 41.6582 269.543 41.3066C269.227 40.9551 269.068 40.5156 269.068 39.9883ZM290.514 46.4922C290.514 46.1406 290.566 45.8125 290.672 45.5078C290.789 45.2031 290.953 44.9395 291.164 44.7168C291.375 44.4824 291.639 44.3008 291.955 44.1719C292.271 44.043 292.641 43.9785 293.062 43.9785C293.484 43.9785 293.854 44.043 294.17 44.1719C294.498 44.3008 294.768 44.4824 294.979 44.7168C295.201 44.9395 295.365 45.2031 295.471 45.5078C295.588 45.8125 295.646 46.1406 295.646 46.4922C295.646 46.832 295.588 47.1543 295.471 47.459C295.365 47.752 295.201 48.0098 294.979 48.2324C294.768 48.4551 294.498 48.6309 294.17 48.7598C293.854 48.877 293.484 48.9355 293.062 48.9355C292.641 48.9355 292.271 48.877 291.955 48.7598C291.639 48.6309 291.375 48.4551 291.164 48.2324C290.953 48.0098 290.789 47.752 290.672 47.459C290.566 47.1543 290.514 46.832 290.514 46.4922ZM294.697 63.2441C294.697 63.7949 294.627 64.3691 294.486 64.9668C294.357 65.5762 294.158 66.1738 293.889 66.7598C293.631 67.3574 293.314 67.9258 292.939 68.4648C292.564 69.0039 292.131 69.4844 291.639 69.9062L289.617 68.7988C290.18 67.9785 290.578 67.1055 290.812 66.1797C291.047 65.2539 291.164 64.293 291.164 63.2969V60.1504H294.697V63.2441Z" fill="black"/>
</svg>
