<svg width="206" height="161" viewBox="0 0 206 161" fill="none" xmlns="http://www.w3.org/2000/svg">
<path fill-rule="evenodd" clip-rule="evenodd" d="M204.726 80.2132H205.615C205.391 80.2575 205.179 80.3484 204.993 80.4799H204.696C203.124 81.6486 201.778 83.0946 200.726 84.7468C196.618 91.1488 196.456 99.2566 196.302 106.896C196.258 109.122 196.214 111.308 196.073 113.401C195.125 127.831 190.858 142.647 175.805 148.04C169.438 150.332 162.808 149.954 156.198 149.577C155.117 149.515 154.037 149.453 152.959 149.403C149.697 149.206 146.383 149.272 143.077 149.338C141.428 149.37 139.781 149.403 138.143 149.403C134.617 149.492 131.091 149.7 127.565 149.966C121.457 150.237 115.49 151.888 110.112 154.796C110.07 154.82 110.019 154.848 109.96 154.881C108.592 155.64 102.809 158.848 103.178 160.723C102.289 156.159 97.0736 154.085 93.2215 152.811C87.259 151.089 81.1103 150.094 74.9091 149.848C67.5073 149.421 60.0871 149.421 52.6853 149.848C45.7204 150.432 38.7069 149.831 31.943 148.07C25.4224 146.322 19.6745 142.442 15.6159 137.047C10.223 129.283 9.30437 118.142 9.68959 108.986C10.2604 102.806 9.56466 96.5748 7.64499 90.6732C6.82687 88.5026 5.74192 86.4422 4.41513 84.5394C3.51422 82.9365 2.32945 81.5108 0.918586 80.3317H0.829691C2.2387 79.1623 3.42346 77.7466 4.32624 76.1536C5.64838 74.248 6.73302 72.1882 7.5561 70.0199C9.47576 64.1182 10.1715 57.8871 9.60069 51.7074C9.30437 42.5512 10.1933 31.4097 15.527 23.6461C19.5856 18.2515 25.3335 14.371 31.8541 12.6231C38.6178 10.8611 45.6332 10.2698 52.5964 10.8749C59.9984 11.2926 67.4181 11.2926 74.8202 10.8749C81.0322 10.6392 87.192 9.64405 93.1622 7.91168C97.0389 6.6392 102.216 4.53923 103.115 0.0180126C102.792 1.76286 108.301 4.92212 109.836 5.80176C109.921 5.8505 109.993 5.89224 110.052 5.92635C115.432 8.82731 121.399 10.4687 127.505 10.7267C127.826 10.7509 128.147 10.7754 128.467 10.7999C131.673 11.0448 134.878 11.2897 138.084 11.2897C139.708 11.2897 141.342 11.3126 142.982 11.3356C146.278 11.3817 149.595 11.4282 152.9 11.2897C153.978 11.2397 155.058 11.1781 156.138 11.1164C162.749 10.739 169.379 10.3606 175.746 12.6528C190.799 18.0457 195.066 32.832 196.014 47.2923C196.183 49.4892 196.235 51.7975 196.288 54.1491C196.459 61.7252 196.64 69.7503 200.755 75.9462C201.805 77.6009 203.151 79.0475 204.726 80.2132ZM103.119 0C103.117 0.00600854 103.116 0.0120127 103.115 0.0180126C103.116 0.0119915 103.117 0.00598726 103.119 0ZM205.615 80.4799C205.409 80.5184 205.198 80.5184 204.993 80.4799H205.615ZM0 80.3317C0.205497 80.2917 0.41677 80.2917 0.622267 80.3317C0.417091 80.3749 0.205176 80.3749 0 80.3317ZM78.6537 116.446C85.7916 121.209 94.1818 123.748 102.763 123.742C114.263 123.734 125.29 119.16 133.419 111.026C141.548 102.891 146.114 91.8615 146.114 80.3613C146.114 71.7801 143.569 63.3917 138.801 56.2571C134.033 49.1225 127.256 43.5623 119.328 40.2798C111.399 36.9973 102.675 36.1399 94.2592 37.8162C85.8433 39.4924 78.1136 43.627 72.0479 49.6969C65.9822 55.7668 61.8529 63.4993 60.1824 71.9163C58.5118 80.3333 59.3752 89.0567 62.6631 96.983C65.951 104.909 71.5159 111.682 78.6537 116.446ZM131.239 80.3622C131.239 96.0891 118.49 108.838 102.763 108.838C87.0359 108.838 74.2867 96.0891 74.2867 80.3622C74.2867 64.6353 87.0359 51.8861 102.763 51.8861C118.49 51.8861 131.239 64.6353 131.239 80.3622Z" fill="white"/>
</svg>
