<svg width="175" height="201" viewBox="0 0 175 201" fill="none" xmlns="http://www.w3.org/2000/svg">
<path d="M122.111 200.034C149.934 200.034 172.489 177.606 172.489 149.939C172.489 122.272 149.934 99.8439 122.111 99.8439C94.2876 99.8439 71.7326 122.272 71.7326 149.939C71.7326 177.606 94.2876 200.034 122.111 200.034Z" fill="black"/>
<path d="M71.731 149.999L122.109 149.939L122.048 99.8438L71.6704 99.9041L71.731 149.999Z" fill="black"/>
<path d="M27.7692 170.446C43.1057 170.446 55.5384 158.083 55.5384 142.833C55.5384 127.583 43.1057 115.22 27.7692 115.22C12.4327 115.22 0 127.583 0 142.833C0 158.083 12.4327 170.446 27.7692 170.446Z" fill="#F54A42"/>
<path d="M55.5067 115.184L27.7375 115.217L27.7709 142.831L55.5401 142.797L55.5067 115.184Z" fill="#F54A42"/>
<path d="M132.083 85.3527C155.785 85.3527 175 66.2458 175 42.6763C175 19.1068 155.785 0 132.083 0C108.38 0 89.1653 19.1068 89.1653 42.6763C89.1653 66.2458 108.38 85.3527 132.083 85.3527Z" fill="#F54A42"/>
<path d="M89.2154 85.4051L132.133 85.3538L132.081 42.6774L89.1637 42.7288L89.2154 85.4051Z" fill="#F54A42"/>
<path d="M39.3762 99.8139C57.1197 99.8139 71.5037 85.5107 71.5037 67.8668C71.5037 50.223 57.1197 35.9198 39.3762 35.9198C21.6326 35.9198 7.24866 50.223 7.24866 67.8668C7.24866 85.5107 21.6326 99.8139 39.3762 99.8139Z" fill="black"/>
<path d="M71.5073 67.8252L39.3797 67.8636L39.4184 99.8107L71.5459 99.7723L71.5073 67.8252Z" fill="black"/>
</svg>
